<svg width="24" height="24" viewBox="0 0 24 24" fill="none" xmlns="http://www.w3.org/2000/svg">
<path d="M20.749 11.9997L21.853 10.0917C21.9857 9.86213 22.0218 9.58928 21.9533 9.33312C21.8849 9.07696 21.7175 8.85847 21.488 8.72569L19.578 7.62169V5.42169C19.578 5.15647 19.4727 4.90212 19.2851 4.71458C19.0976 4.52705 18.8432 4.42169 18.578 4.42169H16.379L15.276 2.51269C15.1428 2.28361 14.9247 2.1162 14.669 2.04669C14.5422 2.01231 14.4098 2.00344 14.2795 2.02061C14.1492 2.03777 14.0236 2.08063 13.91 2.14669L12 3.25069L10.09 2.14569C9.86033 2.01309 9.58739 1.97715 9.33121 2.04579C9.07504 2.11443 8.85662 2.28202 8.72401 2.51169L7.62001 4.42169H5.42101C5.15579 4.42169 4.90144 4.52705 4.7139 4.71458C4.52637 4.90212 4.42101 5.15647 4.42101 5.42169V7.62069L2.51101 8.72469C2.39704 8.79025 2.29715 8.87767 2.21708 8.98195C2.137 9.08623 2.07832 9.2053 2.0444 9.33233C2.01048 9.45936 2.002 9.59184 2.01944 9.72215C2.03687 9.85247 2.07989 9.97805 2.14601 10.0917L3.25001 11.9997L2.14601 13.9077C2.014 14.1375 1.97818 14.4101 2.04637 14.6662C2.11456 14.9223 2.28121 15.141 2.51001 15.2747L4.42001 16.3787V18.5777C4.42001 18.8429 4.52537 19.0973 4.7129 19.2848C4.90044 19.4723 5.15479 19.5777 5.42001 19.5777H7.62001L8.72401 21.4877C8.81254 21.639 8.93895 21.7647 9.09079 21.8524C9.24263 21.9401 9.41468 21.9867 9.59001 21.9877C9.76401 21.9877 9.93701 21.9417 10.091 21.8527L11.999 20.7487L13.909 21.8527C14.1386 21.9851 14.4114 22.021 14.6675 21.9526C14.9236 21.8842 15.142 21.717 15.275 21.4877L16.378 19.5777H18.577C18.8422 19.5777 19.0966 19.4723 19.2841 19.2848C19.4717 19.0973 19.577 18.8429 19.577 18.5777V16.3787L21.487 15.2747C21.6008 15.2089 21.7005 15.1214 21.7804 15.0171C21.8603 14.9128 21.9189 14.7938 21.9528 14.6668C21.9867 14.5399 21.9953 14.4075 21.978 14.2772C21.9607 14.147 21.9179 14.0214 21.852 13.9077L20.749 11.9997ZM9.49901 6.98969C9.89697 6.98982 10.2786 7.14804 10.5599 7.42953C10.8412 7.71102 10.9991 8.09273 10.999 8.49069C10.9989 8.88865 10.8407 9.27025 10.5592 9.55156C10.2777 9.83286 9.89597 9.99082 9.49801 9.99069C9.10005 9.99056 8.71845 9.83234 8.43714 9.55085C8.15584 9.26936 7.99788 8.88765 7.99801 8.48969C7.99814 8.09173 8.15636 7.71013 8.43785 7.42882C8.71934 7.14752 9.10105 6.98956 9.49901 6.98969ZM9.79901 16.5897L8.19901 15.3907L14.199 7.39069L15.799 8.58969L9.79901 16.5897ZM14.499 16.9897C14.302 16.9896 14.1069 16.9507 13.9248 16.8753C13.7428 16.7998 13.5774 16.6892 13.4381 16.5499C13.2989 16.4105 13.1884 16.245 13.113 16.0629C13.0377 15.8809 12.9989 15.6857 12.999 15.4887C12.9991 15.2916 13.038 15.0965 13.1134 14.9145C13.1889 14.7325 13.2995 14.5671 13.4389 14.4278C13.5782 14.2885 13.7437 14.1781 13.9258 14.1027C14.1078 14.0274 14.303 13.9886 14.5 13.9887C14.898 13.9888 15.2796 14.147 15.5609 14.4285C15.8422 14.71 16.0001 15.0917 16 15.4897C15.9999 15.8876 15.8417 16.2693 15.5602 16.5506C15.2787 16.8319 14.897 16.9898 14.499 16.9897Z" fill="#0B6E27"/>
</svg>
