<svg width="17" height="16" viewBox="0 0 17 16" fill="none" xmlns="http://www.w3.org/2000/svg">
<path d="M14.6835 7.72065L8.68353 1.72065C8.44353 1.48065 8.1102 1.33398 7.74353 1.33398H3.07686C2.34353 1.33398 1.74353 1.93398 1.74353 2.66732V7.33398C1.74353 7.70065 1.8902 8.03398 2.13686 8.28065L8.13686 14.2807C8.37686 14.5206 8.7102 14.6673 9.07686 14.6673C9.44353 14.6673 9.77686 14.5206 10.0169 14.274L14.6835 9.60732C14.9302 9.36732 15.0769 9.03398 15.0769 8.66732C15.0769 8.30065 14.9235 7.96065 14.6835 7.72065ZM4.07686 4.66732C3.52353 4.66732 3.07686 4.22065 3.07686 3.66732C3.07686 3.11398 3.52353 2.66732 4.07686 2.66732C4.6302 2.66732 5.07686 3.11398 5.07686 3.66732C5.07686 4.22065 4.6302 4.66732 4.07686 4.66732Z" fill="#0B6E27"/>
</svg>
