<svg width="26" height="24" viewBox="0 0 26 24" fill="none" xmlns="http://www.w3.org/2000/svg">
<path d="M19.0703 14.4648C17.3594 14.4648 15.9675 15.8032 15.9675 17.4483C15.9675 19.0934 17.3594 20.4318 19.0703 20.4318C20.7815 20.4318 22.1731 19.0934 22.1731 17.4483C22.1731 15.8032 20.7812 14.4648 19.0703 14.4648ZM19.0703 18.94C18.2147 18.94 17.5189 18.271 17.5189 17.4483C17.5189 16.6256 18.2147 15.9566 19.0703 15.9566C19.9259 15.9566 20.6217 16.6256 20.6217 17.4483C20.6217 18.271 19.9259 18.94 19.0703 18.94Z" fill="#495057"/>
<path d="M8.46913 14.4648C6.75821 14.4648 5.36633 15.8032 5.36633 17.4483C5.36633 19.0934 6.75821 20.4318 8.46913 20.4318C10.18 20.4318 11.5719 19.0934 11.5719 17.4483C11.5719 15.8032 10.18 14.4648 8.46913 14.4648ZM8.46913 18.94C7.61355 18.94 6.91773 18.271 6.91773 17.4483C6.91773 16.6256 7.61355 15.9566 8.46913 15.9566C9.32447 15.9566 10.0205 16.6256 10.0205 17.4483C10.0205 18.271 9.32471 18.94 8.46913 18.94Z" fill="#495057"/>
<path d="M21.1598 5.92636C21.0279 5.67451 20.7598 5.51562 20.4666 5.51562H16.3812V7.00735H19.9882L22.1004 11.0469L23.4869 10.3766L21.1598 5.92636Z" fill="#495057"/>
<path d="M16.7433 16.7285H10.8739V18.2202H16.7433V16.7285Z" fill="#495057"/>
<path d="M6.14209 16.7285H3.45304C3.02458 16.7285 2.67737 17.0624 2.67737 17.4744C2.67737 17.8863 3.02463 18.2202 3.45304 18.2202H6.14214C6.5706 18.2202 6.91781 17.8863 6.91781 17.4744C6.91781 17.0624 6.57055 16.7285 6.14209 16.7285Z" fill="#495057"/>
<path d="M24.9321 12.1682L23.4063 10.2787C23.2597 10.0967 23.0335 9.99031 22.7938 9.99031H17.157V4.76928C17.157 4.3573 16.8098 4.02344 16.3813 4.02344H3.45304C3.02458 4.02344 2.67737 4.35734 2.67737 4.76928C2.67737 5.18122 3.02463 5.51512 3.45304 5.51512H15.6056V10.7361C15.6056 11.1481 15.9529 11.482 16.3813 11.482H22.4139L23.5436 12.8812V16.7279H21.3975C20.969 16.7279 20.6218 17.0618 20.6218 17.4737C20.6218 17.8857 20.969 18.2196 21.3975 18.2196H24.3192C24.7477 18.2196 25.095 17.8857 25.095 17.4737V12.6257C25.095 12.4601 25.0376 12.299 24.9321 12.1682Z" fill="#495057"/>
<path d="M6.09037 12.9492H2.52213C2.09367 12.9492 1.74646 13.2831 1.74646 13.6951C1.74646 14.107 2.09372 14.4409 2.52213 14.4409H6.09032C6.51878 14.4409 6.86599 14.107 6.86599 13.6951C6.86599 13.2831 6.51878 12.9492 6.09037 12.9492Z" fill="#495057"/>
<path d="M7.87446 10.0156H1.25517C0.826753 10.0156 0.479492 10.3495 0.479492 10.7615C0.479492 11.1735 0.826753 11.5074 1.25517 11.5074H7.87446C8.30293 11.5074 8.65014 11.1735 8.65014 10.7615C8.65014 10.3496 8.30293 10.0156 7.87446 10.0156Z" fill="#495057"/>
<path d="M9.14143 7.08203H2.52213C2.09367 7.08203 1.74646 7.41594 1.74646 7.82787C1.74646 8.23986 2.09372 8.57371 2.52213 8.57371H9.14143C9.56989 8.57371 9.91711 8.23981 9.91711 7.82787C9.91711 7.41594 9.56989 7.08203 9.14143 7.08203Z" fill="#495057"/>
</svg>
